<svg viewBox="0 0 128 128" xml:space="preserve" xmlns="http://www.w3.org/2000/svg"><path d="m102.656 82.955-11.392-6.532 9.901-4.35a2.743 2.743 0 0 0 1.41-3.604c-.592-1.339-2.255-1.996-3.605-1.406L85.364 73.04l-15.865-9.098 15.789-9.114 13.76 5.992c1.397.602 3.014-.087 3.591-1.42a2.736 2.736 0 0 0-1.416-3.594l-10.05-4.376 11.45-6.61c.632-.365 1.084-.955 1.272-1.661s.091-1.442-.275-2.074c-.728-1.252-2.472-1.728-3.734-1.001l-11.373 6.565 1.218-10.746a2.721 2.721 0 0 0-.579-2.02 2.698 2.698 0 0 0-1.823-1.007 2.717 2.717 0 0 0-3.027 2.416l-1.545 14.761L67 59.22V41.017l11.925-8.912a2.607 2.607 0 0 0 1.039-1.724 2.844 2.844 0 0 0-.53-2.097 2.666 2.666 0 0 0-3.729-.573L67 34.204V21.009c0-1.61-1.585-2.732-3.008-2.732-1.415 0-2.992 1.122-2.992 2.732v13.115l-8.573-6.414c-1.173-.871-2.883-.607-3.756.573a2.88 2.88 0 0 0-.543 2.127 2.55 2.55 0 0 0 1.017 1.689L61 40.933v18.278l-15.521-8.966-1.653-14.771c-.165-1.378-1.313-2.417-2.673-2.417-.109 0-.222.006-.326.02-1.476.169-2.549 1.524-2.391 3.033l1.262 10.748-11.641-6.677a2.733 2.733 0 0 0-3.723 1.014c-.743 1.295-.294 2.967 1.01 3.731l11.715 6.718-10.033 4.406c-.67.294-1.185.83-1.448 1.509a2.71 2.71 0 0 0 .045 2.088c.576 1.328 2.187 2.006 3.599 1.412l13.738-6.032 15.575 8.93-15.608 9.011-13.621-5.933c-1.353-.587-3.011.072-3.595 1.415a2.74 2.74 0 0 0 1.414 3.602l9.912 4.316-11.622 6.71a2.749 2.749 0 0 0-.994 3.734 2.745 2.745 0 0 0 2.37 1.365c.485 0 .959-.129 1.362-.366l11.7-6.755-1.241 10.902c-.08.727.127 1.441.585 2.013a2.693 2.693 0 0 0 2.142 1.022 2.73 2.73 0 0 0 2.713-2.432l1.564-14.908L61 68.706v18.16l-10.564 8.837c-1.128.945-1.256 2.67-.294 3.833.506.627 1.307 1.001 2.143 1.001.755 0 1.262-.324 1.641-.625L61 93.979v13.012c0 1.61 1.577 2.732 2.992 2.732 1.423 0 3.008-1.122 3.008-2.732v-13.1l7.183 6.033c1.196.963 2.814.735 3.731-.376.46-.553.703-1.24.683-1.937a2.545 2.545 0 0 0-.919-1.911L67 86.776V68.663l15.708 9.076 1.666 14.91c.165 1.375 1.316 2.412 2.679 2.412.129 0 .209-.007.297-.02a2.688 2.688 0 0 0 1.819-1.005 2.72 2.72 0 0 0 .579-2.024l-1.269-10.887 11.459 6.571a2.726 2.726 0 0 0 3.727-1.013 2.743 2.743 0 0 0-1.009-3.728z" fill="#ffffff" class="fill-231f20"></path></svg>